<svg width="111" height="41" viewBox="0 0 111 41" fill="none" xmlns="http://www.w3.org/2000/svg">
<g clip-path="url(#clip0_26_26)">
<path d="M12.3418 0.421901L12.4004 0.548854L12.498 0.568385L12.0586 1.86722L11.8438 2.99026C11.2578 6.03714 10.8737 8.69664 10.6914 10.9688L10.6035 11.418C10.5645 11.6198 10.1641 11.7272 9.40234 11.7402L9.30469 11.7207L9.08008 11.4277L9.32422 10.6758L9.38281 10.3438C9.76042 8.39065 9.11914 6.28128 7.45898 4.01565C6.80143 3.18883 5.96159 2.61917 4.93945 2.30667L4.65625 2.23831C3.01562 1.88675 2.00326 2.71357 1.61914 4.71878L1.59961 4.83597C1.33268 6.23571 2.44271 7.71032 4.92969 9.2598C8.79688 12.3066 10.9323 14.7415 11.3359 16.5645L11.4824 17.7559C11.1504 19.4811 9.32096 20.2461 5.99414 20.0508L5.54492 19.9531C4.54232 19.7318 3.77734 18.9082 3.25 17.4824C3.10026 17.1699 3.04818 16.6198 3.09375 15.832C3.24349 15.0638 4.26237 14.7025 6.15039 14.748L6.22852 14.875L6.20898 14.9922C6.12435 15.4349 5.76628 15.64 5.13477 15.6074C4.50977 15.5749 4.17122 15.6855 4.11914 15.9395C3.85872 17.3132 4.58789 18.472 6.30664 19.416L6.86328 19.5332C8.3737 19.8652 9.48047 19.3737 10.1836 18.0586C10.4896 16.4635 9.11914 14.1947 6.07227 11.252C3.97591 9.6374 2.33529 8.27998 1.15039 7.17972C0.649089 6.14456 0.450521 5.36331 0.554688 4.83597C0.977865 2.64196 2.58594 1.52217 5.37891 1.47659L6.01367 1.61331C7.43945 1.9193 8.80339 3.25394 10.1055 5.61722L10.2324 4.95315L10.3789 4.17191L10.5254 2.93167C10.8379 1.29756 11.1471 0.516302 11.4531 0.587917C11.7331 0.412135 12.0293 0.356797 12.3418 0.421901ZM11.5699 1.31058L13.5914 1.24222L14.0699 1.22269L16.902 1.418C17.9306 1.58076 19.4801 1.62308 21.5504 1.54495L24.3531 1.43753L27.0484 1.14456L27.2633 1.43753L27.273 1.63284C26.4788 2.08206 25.9677 2.76565 25.7398 3.68362C24.9781 6.47659 24.5354 7.91539 24.4117 8.00003L23.9332 8.11722C23.6402 8.02607 23.4059 7.83727 23.2301 7.55081L23.191 6.95511C23.4189 5.06709 23.8518 3.45901 24.4898 2.13089L23.7086 2.16019L22.9469 2.18948L22.0777 2.31644L20.1441 2.39456L19.2652 2.3262L19.1285 3.41019L19.0211 4.21097L19.0797 5.08011L19.0602 5.94925V6.64261C19.0862 7.62568 19.0862 8.36136 19.0602 8.84964L19.1578 9.81644L19.1285 10.5488L19.148 11.3887L19.2262 12.3652L19.2945 13.3809L19.4117 14.0059L19.6559 15.168L19.9879 16.0078L20.691 17.502L19.4996 17.7363L18.9625 17.8926L18.2594 18.1367C17.9859 17.7917 17.7223 16.4603 17.4684 14.1426L17.4 12.8242L17.234 10.4414L17.3219 8.293L17.3316 6.84769L17.3707 5.86136L17.3902 4.69925L17.3707 3.08792C17.3382 2.56058 17.0973 2.30342 16.648 2.31644L11.902 2.19925L11.4234 2.20901C13.1943 4.03844 14.1155 5.59769 14.1871 6.88675C13.8095 7.1667 13.4286 7.31318 13.0445 7.3262H12.9469C12.7776 7.33271 12.553 6.74352 12.273 5.55862C11.8434 4.67972 10.9221 3.65433 9.50937 2.48245C9.17734 2.49547 9.00156 2.33597 8.98203 2.00394C9.55495 1.58727 10.4176 1.35615 11.5699 1.31058ZM28.4934 0.460964C29.9191 0.304714 31.4426 1.21618 33.0637 3.19534C33.4608 3.87243 33.6887 4.42581 33.7473 4.8555C34.0598 7.03649 32.774 8.87894 29.8898 10.3828L29.3723 10.5488C29.4113 10.8223 31.1594 11.1738 34.6164 11.6035C36.5565 12.235 37.7772 12.5247 38.2785 12.4727L38.8059 12.2969L39.0305 12.6191L39.05 12.7363C39.076 12.9186 38.7505 13.1823 38.0734 13.5273C34.8312 17.668 32.9465 19.7643 32.4191 19.8164C31.7616 20.2786 31.2212 20.5326 30.798 20.5781C30.2967 20.6367 29.9257 20.1777 29.6848 19.2012C29.3397 16.7402 30.2642 14.9043 32.4582 13.6934L32.9074 13.6445L33.1125 13.8398L33.1418 14.0742C33.0832 14.3802 32.4257 14.8783 31.1691 15.5684C30.8501 16.7207 30.7329 17.5801 30.8176 18.1465C31.0194 19.2012 31.3319 19.7057 31.7551 19.6602C32.2043 19.6081 33.9719 17.5247 37.0578 13.4102C34.2909 12.6354 31.6118 12.1211 29.0207 11.8672C28.3241 11.5547 27.7219 11.3887 27.2141 11.3691L27.3117 12.0527L27.7609 17.0918C27.1099 17.7038 26.6704 18.0228 26.4426 18.0488L26.257 18.0684C25.2089 14.9238 24.4341 13.0814 23.9328 12.541L23.8645 12.082L24.7727 11.3984L24.8508 11.3887C25.1047 11.3626 25.5344 12.2448 26.1398 14.0352L26.2277 14.0254L25.8371 10.5977L25.7395 9.90433L25.6418 9.22073L25.6516 8.64456L24.968 4.43558L24.7824 3.76175C26.1626 1.67842 27.3117 0.587917 28.2297 0.49026L28.4934 0.460964ZM26.0422 3.73245L27.0676 9.64065L28.2102 9.98245C31.244 9.65042 32.7772 8.28649 32.8098 5.89065L32.7805 5.66605C32.6112 4.50068 31.6607 3.36787 29.9289 2.26761C28.9458 1.83141 28.1906 1.64261 27.6633 1.7012C26.5565 1.97464 26.0454 2.64847 26.1301 3.72269L26.0422 3.73245ZM27.0969 4.08401L27.3703 4.05472L27.8 6.45706L28.0246 8.07815L27.9367 8.08792C27.7544 8.10745 27.4745 6.77282 27.0969 4.08401ZM39.7723 0.919948C41.7124 1.23896 42.881 2.59313 43.2781 4.98245C43.3823 8.23115 42.549 10.0671 40.7781 10.4902L40.4949 10.5586C39.3751 10.8255 38.3074 10.6497 37.2918 10.0312L37.0184 10.0996C37.8842 13.0488 38.5743 15.028 39.0887 16.0371L39.743 16.7793L40.4363 16.9355L41.0809 16.5547L41.618 15.6172L41.7742 14.3477L41.6668 13.4395C41.2371 12.4694 41.2046 11.9388 41.5691 11.8477L43.2 11.457C43.3758 15.2005 42.4936 17.3034 40.5535 17.7656L40.0066 17.9023C38.7827 18.1888 37.5099 16.7728 36.1883 13.6543L36.0906 13.3613C35.8693 12.9512 35.6609 12.1602 35.4656 10.9883L35.1434 8.99612C34.4077 4.52998 35.7684 1.88349 39.2254 1.05667L39.7723 0.919948ZM37.3211 6.7598C38.0828 9.09704 39.0984 10.0964 40.368 9.75784C41.2534 8.53388 41.5984 7.09183 41.4031 5.43167C41.3055 3.8236 40.674 2.69404 39.5086 2.043L38.8934 1.85745L38.2586 2.06253C37.6596 2.20576 37.3471 3.77151 37.3211 6.7598ZM48.2582 0.919948C50.1983 1.23896 51.3669 2.59313 51.7641 4.98245C51.8682 8.23115 51.0349 10.0671 49.2641 10.4902L48.9809 10.5586C47.8611 10.8255 46.7934 10.6497 45.7777 10.0312L45.5043 10.0996C46.3702 13.0488 47.0603 15.028 47.5746 16.0371L48.2289 16.7793L48.9223 16.9355L49.5668 16.5547L50.1039 15.6172L50.2602 14.3477L50.1527 13.4395C49.723 12.4694 49.6905 11.9388 50.0551 11.8477L51.6859 11.457C51.8617 15.2005 50.9796 17.3034 49.0395 17.7656L48.4926 17.9023C47.2686 18.1888 45.9958 16.7728 44.6742 13.6543L44.5766 13.3613C44.3552 12.9512 44.1469 12.1602 43.9516 10.9883L43.6293 8.99612C42.8936 4.52998 44.2543 1.88349 47.7113 1.05667L48.2582 0.919948ZM45.807 6.7598C46.5687 9.09704 47.5844 10.0964 48.8539 9.75784C49.7393 8.53388 50.0844 7.09183 49.8891 5.43167C49.7914 3.8236 49.1599 2.69404 47.9945 2.043L47.3793 1.85745L46.7445 2.06253C46.1456 2.20576 45.8331 3.77151 45.807 6.7598ZM52.3496 1.31058L54.3711 1.24222L54.8496 1.22269L57.6816 1.418C58.7103 1.58076 60.2598 1.62308 62.3301 1.54495L65.1328 1.43753L67.8281 1.14456L68.043 1.43753L68.0527 1.63284C67.2585 2.08206 66.7474 2.76565 66.5195 3.68362C65.7578 6.47659 65.3151 7.91539 65.1914 8.00003L64.7129 8.11722C64.4199 8.02607 64.1855 7.83727 64.0098 7.55081L63.9707 6.95511C64.1986 5.06709 64.6315 3.45901 65.2695 2.13089L64.4883 2.16019L63.7266 2.18948L62.8574 2.31644L60.9238 2.39456L60.0449 2.3262L59.9082 3.41019L59.8008 4.21097L59.8594 5.08011L59.8398 5.94925V6.64261C59.8659 7.62568 59.8659 8.36136 59.8398 8.84964L59.9375 9.81644L59.9082 10.5488L59.9277 11.3887L60.0059 12.3652L60.0742 13.3809L60.1914 14.0059L60.4355 15.168L60.7676 16.0078L61.4707 17.502L60.2793 17.7363L59.7422 17.8926L59.0391 18.1367C58.7656 17.7917 58.502 16.4603 58.248 14.1426L58.1797 12.8242L58.0137 10.4414L58.1016 8.293L58.1113 6.84769L58.1504 5.86136L58.1699 4.69925L58.1504 3.08792C58.1178 2.56058 57.877 2.30342 57.4277 2.31644L52.6816 2.19925L52.2031 2.20901C53.974 4.03844 54.8952 5.59769 54.9668 6.88675C54.5892 7.1667 54.2083 7.31318 53.8242 7.3262H53.7266C53.5573 7.33271 53.3327 6.74352 53.0527 5.55862C52.623 4.67972 51.7018 3.65433 50.2891 2.48245C49.957 2.49547 49.7812 2.33597 49.7617 2.00394C50.3346 1.58727 51.1973 1.35615 52.3496 1.31058ZM1.26758 20.1973C2.60221 20.5423 3.29883 20.7637 3.35742 20.8613L3.32812 21.2715L3.33789 21.3594C3.60482 21.7565 4.10286 22.3978 4.83203 23.2832C5.56771 24.1686 6.02344 24.6992 6.19922 24.875C6.375 25.0508 6.60938 25.2982 6.90234 25.6172C7.45573 26.0208 7.74544 26.3366 7.77148 26.5645L7.9375 26.5352C8.30859 26.0534 8.81641 25.6628 9.46094 25.3633C9.89714 25.0638 10.584 24.7546 11.5215 24.4355L13.2305 23.4785C13.9141 23.0098 14.6465 22.4043 15.4277 21.6621L15.9551 21.2715L16.7363 20.8906C17.0749 20.9036 17.2507 20.959 17.2637 21.0566L17.293 21.291C16.1862 22.6517 15.6393 23.8887 15.6523 25.002C15.5742 25.9395 15.7109 27.7559 16.0625 30.4512C16.5508 34.2142 17.1107 36.2031 17.7422 36.418L17.7715 36.9355L17.3906 37.2188L16.9609 37.3848L16.3848 37.3457C16.1634 37.3457 15.8802 37.1113 15.5352 36.6426C15.2227 35.972 14.9069 35.0508 14.5879 33.8789L14.4023 32.4824L14.041 30.373L13.9727 29.7969L13.9043 28.6445C13.7611 27.5573 13.7806 26.0208 13.9629 24.0352C11.7103 25.0312 10.3105 25.819 9.76367 26.3984C9.34701 27.0234 9.17448 27.6094 9.24609 28.1562L9.27539 28.4004C9.54232 28.9082 10.1152 29.6797 10.9941 30.7148C11.3262 31.0078 11.6647 31.4505 12.0098 32.043C12.2507 32.2708 12.5566 32.7233 12.9277 33.4004L12.9473 33.5664C12.9668 33.6966 12.4362 33.8984 11.3555 34.1719C10.5807 34.0677 9.95247 33.7227 9.4707 33.1367C8.29232 31.8021 7.63477 30.7083 7.49805 29.8555L7.38086 29.3086L7.36133 29.1426L7.26367 28.4004C6.7819 27.5866 5.52865 26.0957 3.50391 23.9277L3.42578 23.9375L3.47461 24.3477L3.50391 24.8164L3.61133 25.334L3.5918 26.3203L3.70898 27.541L3.75781 28.3418L3.83594 29.709L4.09961 32.1504L4.22656 33.4297L4.4707 34.9434L4.79297 36.0078L5.29102 36.7988L6.31641 37.8926C5.93229 38.3158 5.23242 38.4688 4.2168 38.3516C3.94336 38.3971 3.70573 38.3027 3.50391 38.0684L3.21094 35.8613L3.03516 34.4648L2.86914 33.2344L2.73242 32.1699L2.54688 30.6953L2.49805 30.373L2.36133 29.2988L1.95117 26.1152L1.6875 22.1406C1.32292 21.763 0.772786 21.3822 0.0371094 20.998L0.0078125 20.832C0.151042 20.6367 0.440755 20.4772 0.876953 20.3535L1.26758 20.1973ZM18.6402 22.2773C19.122 22.349 19.3596 22.4531 19.3531 22.5898C19.2685 23.9831 19.1513 25.1712 19.0016 26.1543L18.8844 27.4727V27.9902L18.816 29.5723C18.6858 31.4408 18.5849 32.4401 18.5133 32.5703L17.6441 36.75C20.0465 36.0339 21.9215 35.6823 23.2691 35.6953L23.5816 35.7051L25.9156 35.9297L25.9254 35.832C24.4866 33.8789 23.6923 32.0658 23.5426 30.3926C23.4124 29.7611 23.3505 29.0482 23.357 28.2539L23.3766 26.6133C23.3896 25.5326 23.7379 24.9954 24.4215 25.002L24.734 24.9043C24.9944 24.9043 25.1572 25.6204 25.2223 27.0527L25.2125 27.9707C25.1539 32.541 26.596 35.4219 29.5387 36.6133C29.3303 36.9062 29.1773 37.1927 29.0797 37.4727C28.7932 37.7917 28.4059 37.8405 27.9176 37.6191C26.0296 36.8249 24.0699 36.4147 22.0387 36.3887C20.4827 36.3691 19.0471 36.9616 17.732 38.166C17.7255 38.5762 17.0452 38.8431 15.691 38.9668L15.3785 38.5566L15.3883 38.3418C16.2477 37.209 17.0322 33.8431 17.7418 28.2441L17.8785 26.2422L17.7906 24.9238L17.7125 22.5703L18.6402 22.2773ZM21.8141 32.6191L22.5758 32.5117L22.9371 32.834V33.6348L22.732 33.8691L21.9898 33.957L21.8238 33.8008L21.8141 32.6191ZM19.6852 32.7852L20.4371 32.6484L20.8082 32.9609L20.8277 33.7617L20.6324 33.9961L19.8902 34.1133L19.7145 33.957L19.6852 32.7852ZM36.7355 20.4219L36.7941 20.5488L36.8918 20.5684L36.4523 21.8672L36.2375 22.9902C35.6516 26.0371 35.2674 28.6966 35.0852 30.9688L34.9973 31.418C34.9582 31.6198 34.5578 31.7272 33.7961 31.7402L33.6984 31.7207L33.4738 31.4277L33.718 30.6758L33.7766 30.3438C34.1542 28.3906 33.5129 26.2812 31.8527 24.0156C31.1952 23.1888 30.3553 22.6191 29.3332 22.3066L29.05 22.2383C27.4094 21.8867 26.397 22.7135 26.0129 24.7188L25.9934 24.8359C25.7264 26.2357 26.8365 27.7103 29.3234 29.2598C33.1906 32.3066 35.326 34.7415 35.7297 36.5645L35.8762 37.7559C35.5441 39.4811 33.7147 40.2461 30.3879 40.0508L29.9387 39.9531C28.9361 39.7318 28.1711 38.9082 27.6437 37.4824C27.494 37.1699 27.4419 36.6198 27.4875 35.832C27.6372 35.0638 28.6561 34.7025 30.5441 34.748L30.6223 34.875L30.6027 34.9922C30.5181 35.4349 30.16 35.64 29.5285 35.6074C28.9035 35.5749 28.565 35.6855 28.5129 35.9395C28.2525 37.3132 28.9816 38.472 30.7004 39.416L31.257 39.5332C32.7674 39.8652 33.8742 39.3737 34.5773 38.0586C34.8833 36.4635 33.5129 34.1947 30.466 31.252C28.3697 29.6374 26.729 28.2799 25.5441 27.1797C25.0428 26.1445 24.8443 25.3633 24.9484 24.8359C25.3716 22.6419 26.9797 21.5221 29.7727 21.4766L30.4074 21.6133C31.8332 21.9193 33.1971 23.2539 34.4992 25.6172L34.6262 24.9531L34.7727 24.1719L34.9191 22.9316C35.2316 21.2975 35.5409 20.5163 35.8469 20.5879C36.1268 20.4121 36.423 20.3568 36.7355 20.4219ZM40.3582 20.9199C42.2983 21.2389 43.4669 22.5931 43.8641 24.9824C43.9682 28.2311 43.1349 30.0671 41.3641 30.4902L41.0809 30.5586C39.9611 30.8255 38.8934 30.6497 37.8777 30.0312L37.6043 30.0996C38.4702 33.0488 39.1603 35.028 39.6746 36.0371L40.3289 36.7793L41.0223 36.9355L41.6668 36.5547L42.2039 35.6172L42.3602 34.3477L42.2527 33.4395C41.823 32.4694 41.7905 31.9388 42.1551 31.8477L43.7859 31.457C43.9617 35.2005 43.0796 37.3034 41.1395 37.7656L40.5926 37.9023C39.3686 38.1888 38.0958 36.7728 36.7742 33.6543L36.6766 33.3613C36.4552 32.9512 36.2469 32.1602 36.0516 30.9883L35.7293 28.9961C34.9936 24.5299 36.3543 21.8835 39.8113 21.0566L40.3582 20.9199ZM37.907 26.7598C38.6688 29.097 39.6844 30.0964 40.9539 29.7578C41.8393 28.5339 42.1844 27.0918 41.9891 25.4316C41.8914 23.8236 41.2599 22.694 40.0945 22.043L39.4793 21.8574L38.8445 22.0625C38.2456 22.2057 37.9331 23.7715 37.907 26.7598ZM46.2465 22.2773C46.7283 22.349 46.9659 22.4531 46.9594 22.5898C46.8747 23.9831 46.7576 25.1712 46.6078 26.1543L46.4906 27.4727V27.9902L46.4223 29.5723C46.2921 31.4408 46.1911 32.4401 46.1195 32.5703L45.2504 36.75C47.6527 36.0339 49.5277 35.6823 50.8754 35.6953L51.1879 35.7051L53.5219 35.9297L53.5316 35.832C52.0928 33.8789 51.2986 32.0658 51.1488 30.3926C51.0186 29.7611 50.9568 29.0482 50.9633 28.2539L50.9828 26.6133C50.9958 25.5326 51.3441 24.9954 52.0277 25.002L52.3402 24.9043C52.6006 24.9043 52.7634 25.6204 52.8285 27.0527L52.8187 27.9707C52.7602 32.541 54.2022 35.4219 57.1449 36.6133C56.9366 36.9062 56.7836 37.1927 56.6859 37.4727C56.3995 37.7917 56.0121 37.8405 55.5238 37.6191C53.6358 36.8249 51.6762 36.4147 49.6449 36.3887C48.0889 36.3691 46.6534 36.9616 45.3383 38.166C45.3318 38.5762 44.6514 38.8431 43.2973 38.9668L42.9848 38.5566L42.9945 38.3418C43.8539 37.209 44.6384 33.8431 45.348 28.2441L45.4848 26.2422L45.3969 24.9238L45.3187 22.5703L46.2465 22.2773ZM49.4203 32.6191L50.182 32.5117L50.5434 32.834V33.6348L50.3383 33.8691L49.5961 33.957L49.4301 33.8008L49.4203 32.6191ZM47.2914 32.7852L48.0434 32.6484L48.4145 32.9609L48.434 33.7617L48.2387 33.9961L47.4965 34.1133L47.3207 33.957L47.2914 32.7852ZM53.2676 20.1973C54.6022 20.5423 55.2988 20.7637 55.3574 20.8613L55.3281 21.2715L55.3379 21.3594C55.6048 21.7565 56.1029 22.3978 56.832 23.2832C57.5677 24.1686 58.0234 24.6992 58.1992 24.875C58.375 25.0508 58.6094 25.2982 58.9023 25.6172C59.4557 26.0208 59.7454 26.3366 59.7715 26.5645L59.9375 26.5352C60.3086 26.0534 60.8164 25.6628 61.4609 25.3633C61.8971 25.0638 62.584 24.7546 63.5215 24.4355L65.2305 23.4785C65.9141 23.0098 66.6465 22.4043 67.4277 21.6621L67.9551 21.2715L68.7363 20.8906C69.0749 20.9036 69.2507 20.959 69.2637 21.0566L69.293 21.291C68.1862 22.6517 67.6393 23.8887 67.6523 25.002C67.5742 25.9395 67.7109 27.7559 68.0625 30.4512C68.5508 34.2142 69.1107 36.2031 69.7422 36.418L69.7715 36.9355L69.3906 37.2188L68.9609 37.3848L68.3848 37.3457C68.1634 37.3457 67.8802 37.1113 67.5352 36.6426C67.2227 35.972 66.9069 35.0508 66.5879 33.8789L66.4023 32.4824L66.041 30.373L65.9727 29.7969L65.9043 28.6445C65.7611 27.5573 65.7806 26.0208 65.9629 24.0352C63.7103 25.0312 62.3105 25.819 61.7637 26.3984C61.347 27.0234 61.1745 27.6094 61.2461 28.1562L61.2754 28.4004C61.5423 28.9082 62.1152 29.6797 62.9941 30.7148C63.3262 31.0078 63.6647 31.4505 64.0098 32.043C64.2507 32.2708 64.5566 32.7233 64.9277 33.4004L64.9473 33.5664C64.9668 33.6966 64.4362 33.8984 63.3555 34.1719C62.5807 34.0677 61.9525 33.7227 61.4707 33.1367C60.2923 31.8021 59.6348 30.7083 59.498 29.8555L59.3809 29.3086L59.3613 29.1426L59.2637 28.4004C58.7819 27.5866 57.5286 26.0957 55.5039 23.9277L55.4258 23.9375L55.4746 24.3477L55.5039 24.8164L55.6113 25.334L55.5918 26.3203L55.709 27.541L55.7578 28.3418L55.8359 29.709L56.0996 32.1504L56.2266 33.4297L56.4707 34.9434L56.793 36.0078L57.291 36.7988L58.3164 37.8926C57.9323 38.3158 57.2324 38.4688 56.2168 38.3516C55.9434 38.3971 55.7057 38.3027 55.5039 38.0684L55.2109 35.8613L55.0352 34.4648L54.8691 33.2344L54.7324 32.1699L54.5469 30.6953L54.498 30.373L54.3613 29.2988L53.9512 26.1152L53.6875 22.1406C53.3229 21.763 52.7728 21.3822 52.0371 20.998L52.0078 20.832C52.151 20.6367 52.4408 20.4772 52.877 20.3535L53.2676 20.1973Z" fill="white"/>
<path d="M78.1984 0.148477L78.3938 0.36332L78.5891 0.382851L78.1496 4.61137L78.3156 8.6934L78.5988 10.7441L81.6945 10.334L81.7043 10.1289C81.4244 10.1159 80.7115 9.46163 79.5656 8.16606L79.5754 7.96098L80.4445 7.19926C81.7336 8.58598 82.9803 9.34444 84.1848 9.47465L85.4152 9.3477L85.6008 9.57231L85.5813 9.98246C84.3117 10.679 83.6477 11.5807 83.5891 12.6875L83.1594 13.0781L82.7883 12.4336L83.4914 10.8613L83.2863 10.8418L78.7453 11.7695L78.7258 12.1699L78.9211 12.1797C83.9081 13.1237 86.3202 14.9792 86.1574 17.7461C86.0207 20.1419 84.8521 21.4831 82.6516 21.7695L82.4563 21.7598C80.3925 21.623 78.8592 18.7487 77.8566 13.1367L73.8137 12.4629C72.0624 14.5137 70.3046 15.4805 68.5402 15.3633L68.1398 15.334L67.5637 14.6895L67.7785 14.5137L68.5891 14.5625L68.7941 14.7676C70.2395 14.5332 71.6425 13.6803 73.0031 12.209C70.7115 12.0592 69.5754 11.7826 69.5949 11.3789L70.6691 10.4219L71.0793 10.4512L74.1066 10.8516C75.8645 8.65108 76.8313 6.07296 77.007 3.11723C77.5279 1.11853 77.925 0.128945 78.1984 0.148477ZM76.7336 7.82426C76.6945 8.49483 76.0826 9.63415 74.8977 11.2422L74.8879 11.4375L77.3586 11.2129L76.9289 7.83402L76.7336 7.82426ZM79.048 13.4785L79.0383 13.6738C79.9823 18.4525 81.2714 20.8939 82.9055 20.998C84.2792 20.7507 85.0083 19.8815 85.093 18.3906L85.132 17.8047C84.2857 15.1354 82.2577 13.6934 79.048 13.4785ZM88.3738 0.460977C89.7996 0.304727 91.323 1.21619 92.9441 3.19535C93.3413 3.87244 93.5691 4.42582 93.6277 4.85551C93.9402 7.0365 92.6544 8.87895 89.7703 10.3828L89.2527 10.5488C89.2918 10.8223 91.0398 11.1738 94.4969 11.6035C96.437 12.235 97.6577 12.5247 98.159 12.4727L98.6863 12.2969L98.9109 12.6191L98.9305 12.7363C98.9565 12.9186 98.631 13.1823 97.9539 13.5273C94.7117 17.668 92.827 19.7643 92.2996 19.8164C91.6421 20.2786 91.1017 20.5326 90.6785 20.5781C90.1772 20.6367 89.8061 20.1777 89.5652 19.2012C89.2202 16.7402 90.1447 14.9043 92.3387 13.6934L92.7879 13.6445L92.993 13.8398L93.0223 14.0742C92.9637 14.3802 92.3061 14.8783 91.0496 15.5684C90.7306 16.7207 90.6134 17.5801 90.698 18.1465C90.8999 19.2012 91.2124 19.7057 91.6355 19.6602C92.0848 19.6081 93.8523 17.5247 96.9383 13.4102C94.1714 12.6354 91.4923 12.1211 88.9012 11.8672C88.2046 11.5547 87.6023 11.3887 87.0945 11.3691L87.1922 12.0527L87.6414 17.0918C86.9904 17.7038 86.5509 18.0228 86.323 18.0488L86.1375 18.0684C85.0893 14.9238 84.3146 13.0814 83.8133 12.541L83.7449 12.082L84.6531 11.3984L84.7312 11.3887C84.9852 11.3626 85.4148 12.2448 86.0203 14.0352L86.1082 14.0254L85.7176 10.5977L85.6199 9.90434L85.5223 9.22074L85.532 8.64457L84.8484 4.43559L84.6629 3.76176C86.0431 1.67843 87.1922 0.58793 88.1102 0.490273L88.3738 0.460977ZM85.9227 3.73246L86.948 9.64066L88.0906 9.98246C91.1245 9.65043 92.6577 8.2865 92.6902 5.89066L92.6609 5.66606C92.4917 4.50069 91.5411 3.36788 89.8094 2.26762C88.8263 1.83142 88.0711 1.64262 87.5437 1.70121C86.437 1.97465 85.9259 2.64848 86.0105 3.7227L85.9227 3.73246ZM86.9773 4.08402L87.2508 4.05473L87.6805 6.45707L87.9051 8.07816L87.8172 8.08793C87.6349 8.10746 87.3549 6.77283 86.9773 4.08402ZM95.2582 1.31059L97.2797 1.24223L97.7582 1.2227L100.59 1.41801C101.619 1.58077 103.168 1.62309 105.239 1.54496L108.041 1.43754L110.737 1.14457L110.952 1.43754L110.961 1.63285C110.167 2.08207 109.656 2.76566 109.428 3.68363C108.666 6.4766 108.224 7.9154 108.1 8.00004L107.621 8.11723C107.329 8.02608 107.094 7.83728 106.918 7.55082L106.879 6.95512C107.107 5.0671 107.54 3.45902 108.178 2.1309L107.397 2.1602L106.635 2.18949L105.766 2.31645L103.832 2.39457L102.954 2.32621L102.817 3.4102L102.709 4.21098L102.768 5.08012L102.748 5.94926V6.64262C102.774 7.62569 102.774 8.36137 102.748 8.84965L102.846 9.81645L102.817 10.5488L102.836 11.3887L102.914 12.3652L102.983 13.3809L103.1 14.0059L103.344 15.168L103.676 16.0078L104.379 17.502L103.188 17.7363L102.651 17.8926L101.948 18.1367C101.674 17.7917 101.411 16.4603 101.157 14.1426L101.088 12.8242L100.922 10.4414L101.01 8.29301L101.02 6.8477L101.059 5.86137L101.079 4.69926L101.059 3.08793C101.026 2.56059 100.786 2.30343 100.336 2.31645L95.5902 2.19926L95.1117 2.20902C96.8826 4.03845 97.8038 5.5977 97.8754 6.88676C97.4978 7.16671 97.1169 7.31319 96.7328 7.32621H96.6352C96.4659 7.33272 96.2413 6.74353 95.9613 5.55863C95.5316 4.67973 94.6104 3.65434 93.1977 2.48246C92.8656 2.49548 92.6898 2.33598 92.6703 2.00395C93.2432 1.58728 94.1059 1.35616 95.2582 1.31059Z" fill="#FB0862"/>
</g>
<defs>
<clipPath id="clip0_26_26">
<rect width="111" height="41" fill="white"/>
</clipPath>
</defs>
</svg>
